<svg version="1.1" preserveAspectRatio="none" xmlns="http://www.w3.org/2000/svg" width="500" height="500" viewBox="0 0 500 500"><rect width="100%" height="100%" fill="#FFFFFF" fill-opacity="1"/><svg viewBox="45.1627 194.4978 472.8031 104" width="333" height="73.24825069886387" x="83.5px" y="213.3759px" xmlns="http://www.w3.org/2000/svg" xmlns:xlink="http://www.w3.org/1999/xlink" preserveAspectRatio="none"><defs></defs><style>.companyName {fill:#4D4D4D;fill-opacity:1;}.icon1 {fill:#FF834F;fill-opacity:1;}.icon2 {fill:#FF4949;fill-opacity:1;}.icon3 {fill:#FFAE78;fill-opacity:1;}.icon3-str {stroke:#FFAE78;stroke-opacity:1;}.shapeStroke-str {stroke:#313131;stroke-opacity:1;}</style><g opacity="1" transform="rotate(0 45.1627 206.4978)">
<svg width="71.9371" height="80" x="45.1627" y="206.4978" version="1.1" preserveAspectRatio="none" viewBox="28.062774658203125 25.99958610534668 143.87469482421875 160.0004119873047">
  <g transform="matrix(1 0 0 1 0 0)"><g><path d="M131.531 86.584c.888-11.438-20.681-2.901-6.539 7.712 2.504.432 6.175-1.966 6.539-7.712z" data-color="1" class="icon1"></path><path d="M96.629 87.708c10.24.347 3.078-23.993-5.413-8.174.224 2.908-1.227 5.534 5.413 8.174z" data-color="1" class="icon1"></path><path d="M62.097 48.101c-13.218 3.248-.884 31.22 6.022 4.728-.463-1.673-.889-3.265-6.022-4.728z" data-color="1" class="icon1"></path><path d="M116.831 37.436c7.401-19.75-21.763-11.037-6.257 4.409 2.46.114 3.559-.009 6.257-4.409z" data-color="1" class="icon1"></path><path d="M171.483 89.237c-3.405-12.88-20 5.277-4.806 12.148 3.913.382 6.312-5.868 4.806-12.148z" data-color="1" class="icon1"></path><path d="M150.393 47.564c-10.239-.436-3.382 24.954 5.413 8.865-.334-2.867 1.634-6.187-5.413-8.865z" data-color="1" class="icon1"></path><path d="M143.873 121.996c-9.944-3.396-10.228 24.205 2.603 10.652.325-2.798 3.786-6.017-2.603-10.652z" data-color="1" class="icon1"></path><path d="M97.205 104.716c-10.199-.477-2.79 23.05 5.413 7.484-.086-2.818.431-5.369-5.413-7.484z" data-color="1" class="icon1"></path><path d="M49.586 149.859c-9.397-4.613-14.969 24.442.479 12.413 1.331-4.813 5.455-5.928-.479-12.413z" data-color="1" class="icon1"></path><path d="M59.439 95.334c-10.453 5.228 9.146 25.108 7.298 2.313-1.021-1.408-1.981-2.748-7.298-2.313z" data-color="1" class="icon1"></path><path d="M39.913 77.925c5.639 6.165 16.767-12.208 1.968-11.994-1.766 1.03-6.138 5.113-1.968 11.994z" data-color="1" class="icon1"></path><path d="M122.382 127.979c-1.487-11.449-21.035-.238-4.616 9.543 3.327-.016 6.087-3.361 4.616-9.543z" data-color="1" class="icon1"></path><path d="M77.82 129.215c-12.443-3.107-6.111 28.627 3.541 10.059-.214-3.255 2.264-6.29-3.541-10.059z" data-color="1" class="icon1"></path><path d="M38.984 114.137c-7.631-8.093-19.18 18.915-1.957 12.586.633-3.366 5.543-6.077 1.957-12.586z" data-color="1" class="icon1"></path><path d="M98.641 177.023c-1.56-10.545-20.79.875-5.84 8.977 2.385-1.462 5.34.297 5.84-8.977z" data-color="1" class="icon1"></path><path d="M135.595 149.322c-10.24-.346-3.077 23.992 5.413 8.173-.224-2.907 1.227-5.532-5.413-8.173z" data-color="1" class="icon1"></path></g></g>
</svg>
</g><g opacity="1" transform="rotate(0 155.0998 221.4978)">
<svg width="362.866" height="50" x="155.0998" y="221.4978" version="1.1" preserveAspectRatio="none" viewBox="1.12 -28.48 265.32 36.56">
  <g transform="matrix(1 0 0 1 0 0)" class="companyName"><path id="id-D6z1nYkh10" d="M12.52 0.48Q9.20 0.48 6.10-0.42Q3-1.32 1.12-2.76L1.12-2.76L3.32-7.64Q5.12-6.32 7.60-5.52Q10.08-4.72 12.56-4.72L12.56-4.72Q15.32-4.72 16.64-5.54Q17.96-6.36 17.96-7.72L17.96-7.72Q17.96-8.72 17.18-9.38Q16.40-10.04 15.18-10.44Q13.96-10.84 11.88-11.32L11.88-11.32Q8.68-12.08 6.64-12.84Q4.60-13.60 3.14-15.28Q1.68-16.96 1.68-19.76L1.68-19.76Q1.68-22.20 3-24.18Q4.32-26.16 6.98-27.32Q9.64-28.48 13.48-28.48L13.48-28.48Q16.16-28.48 18.72-27.84Q21.28-27.20 23.20-26L23.20-26L21.20-21.08Q17.32-23.28 13.44-23.28L13.44-23.28Q10.72-23.28 9.42-22.40Q8.12-21.52 8.12-20.08L8.12-20.08Q8.12-18.64 9.62-17.94Q11.12-17.24 14.20-16.56L14.20-16.56Q17.40-15.80 19.44-15.04Q21.48-14.28 22.94-12.64Q24.40-11 24.40-8.20L24.40-8.20Q24.40-5.80 23.06-3.82Q21.72-1.84 19.04-0.68Q16.36 0.48 12.52 0.48L12.52 0.48Z M41.12-21.84Q44.12-21.84 46.58-20.46Q49.04-19.08 50.44-16.58Q51.84-14.08 51.84-10.76L51.84-10.76Q51.84-7.44 50.44-4.94Q49.04-2.44 46.58-1.06Q44.12 0.32 41.12 0.32L41.12 0.32Q37 0.32 34.64-2.28L34.64-2.28L34.64 7.76L28.40 7.76L28.40-21.52L34.36-21.52L34.36-19.04Q36.68-21.84 41.12-21.84L41.12-21.84ZM40.04-4.80Q42.44-4.80 43.98-6.42Q45.52-8.04 45.52-10.76L45.52-10.76Q45.52-13.48 43.98-15.10Q42.44-16.72 40.04-16.72L40.04-16.72Q37.64-16.72 36.10-15.10Q34.56-13.48 34.56-10.76L34.56-10.76Q34.56-8.04 36.10-6.42Q37.64-4.80 40.04-4.80L40.04-4.80Z M64.32-21.84Q69.32-21.84 72-19.46Q74.68-17.08 74.68-12.28L74.68-12.28L74.68 0L68.84 0L68.84-2.68Q67.08 0.32 62.28 0.32L62.28 0.32Q59.80 0.32 57.98-0.52Q56.16-1.36 55.20-2.84Q54.24-4.32 54.24-6.20L54.24-6.20Q54.24-9.20 56.50-10.92Q58.76-12.64 63.48-12.64L63.48-12.64L68.44-12.64Q68.44-14.68 67.20-15.78Q65.96-16.88 63.48-16.88L63.48-16.88Q61.76-16.88 60.10-16.34Q58.44-15.80 57.28-14.88L57.28-14.88L55.04-19.24Q56.80-20.48 59.26-21.16Q61.72-21.84 64.32-21.84L64.32-21.84ZM63.84-3.88Q65.44-3.88 66.68-4.62Q67.92-5.36 68.44-6.80L68.44-6.80L68.44-9L64.16-9Q60.32-9 60.32-6.48L60.32-6.48Q60.32-5.28 61.26-4.58Q62.20-3.88 63.84-3.88L63.84-3.88Z M90.96 0.32Q87.52 0.32 84.78-1.10Q82.04-2.52 80.50-5.04Q78.96-7.56 78.96-10.76L78.96-10.76Q78.96-13.96 80.50-16.48Q82.04-19 84.78-20.42Q87.52-21.84 90.96-21.84L90.96-21.84Q94.36-21.84 96.90-20.42Q99.44-19 100.60-16.36L100.60-16.36L95.76-13.76Q94.08-16.72 90.92-16.72L90.92-16.72Q88.48-16.72 86.88-15.12Q85.28-13.52 85.28-10.76L85.28-10.76Q85.28-8 86.88-6.40Q88.48-4.80 90.92-4.80L90.92-4.80Q94.12-4.80 95.76-7.76L95.76-7.76L100.60-5.12Q99.44-2.56 96.90-1.12Q94.36 0.32 90.96 0.32L90.96 0.32Z M125-10.68Q125-10.56 124.88-9L124.88-9L108.60-9Q109.04-7 110.68-5.84Q112.32-4.68 114.76-4.68L114.76-4.68Q116.44-4.68 117.74-5.18Q119.04-5.68 120.16-6.76L120.16-6.76L123.48-3.16Q120.44 0.32 114.60 0.32L114.60 0.32Q110.96 0.32 108.16-1.10Q105.36-2.52 103.84-5.04Q102.32-7.56 102.32-10.76L102.32-10.76Q102.32-13.92 103.82-16.46Q105.32-19 107.94-20.42Q110.56-21.84 113.80-21.84L113.80-21.84Q116.96-21.84 119.52-20.48Q122.08-19.12 123.54-16.58Q125-14.04 125-10.68L125-10.68ZM113.84-17.12Q111.72-17.12 110.28-15.92Q108.84-14.72 108.52-12.64L108.52-12.64L119.12-12.64Q118.80-14.68 117.36-15.90Q115.92-17.12 113.84-17.12L113.84-17.12Z M129.60 0L129.60-28L142.32-28Q146.88-28 150.38-26.26Q153.88-24.52 155.82-21.36Q157.76-18.20 157.76-14L157.76-14Q157.76-9.80 155.82-6.64Q153.88-3.48 150.38-1.74Q146.88 0 142.32 0L142.32 0L129.60 0ZM136.08-5.32L142-5.32Q146.20-5.32 148.70-7.66Q151.20-10 151.20-14L151.20-14Q151.20-18 148.70-20.34Q146.20-22.68 142-22.68L142-22.68L136.08-22.68L136.08-5.32Z M172.44 0.32Q169.04 0.32 166.34-1.10Q163.64-2.52 162.12-5.04Q160.60-7.56 160.60-10.76L160.60-10.76Q160.60-13.96 162.12-16.48Q163.64-19 166.34-20.42Q169.04-21.84 172.44-21.84L172.44-21.84Q175.84-21.84 178.52-20.42Q181.20-19 182.72-16.48Q184.24-13.96 184.24-10.76L184.24-10.76Q184.24-7.56 182.72-5.04Q181.20-2.52 178.52-1.10Q175.84 0.32 172.44 0.32L172.44 0.32ZM172.44-4.80Q174.84-4.80 176.38-6.42Q177.92-8.04 177.92-10.76L177.92-10.76Q177.92-13.48 176.38-15.10Q174.84-16.72 172.44-16.72L172.44-16.72Q170.04-16.72 168.48-15.10Q166.92-13.48 166.92-10.76L166.92-10.76Q166.92-8.04 168.48-6.42Q170.04-4.80 172.44-4.80L172.44-4.80Z M204.68-21.52L210.60-21.52L210.60-3.60Q210.60 2.32 207.52 5.20Q204.44 8.08 198.52 8.08L198.52 8.08Q195.40 8.08 192.60 7.32Q189.80 6.56 187.96 5.12L187.96 5.12L190.44 0.64Q191.80 1.76 193.88 2.42Q195.96 3.08 198.04 3.08L198.04 3.08Q201.28 3.08 202.82 1.62Q204.36 0.16 204.36-2.80L204.36-2.80L204.36-3.72Q201.92-1.04 197.56-1.04L197.56-1.04Q194.60-1.04 192.14-2.34Q189.68-3.64 188.24-6Q186.80-8.36 186.80-11.44L186.80-11.44Q186.80-14.52 188.24-16.88Q189.68-19.24 192.14-20.54Q194.60-21.84 197.56-21.84L197.56-21.84Q202.24-21.84 204.68-18.76L204.68-18.76L204.68-21.52ZM198.80-6.16Q201.28-6.16 202.86-7.62Q204.44-9.08 204.44-11.44L204.44-11.44Q204.44-13.80 202.86-15.26Q201.28-16.72 198.80-16.72L198.80-16.72Q196.32-16.72 194.72-15.26Q193.12-13.80 193.12-11.44L193.12-11.44Q193.12-9.08 194.72-7.62Q196.32-6.16 198.80-6.16L198.80-6.16Z M232.68-21.52L238.60-21.52L238.60-3.60Q238.60 2.32 235.52 5.20Q232.44 8.08 226.52 8.08L226.52 8.08Q223.40 8.08 220.60 7.32Q217.80 6.56 215.96 5.12L215.96 5.12L218.44 0.64Q219.80 1.76 221.88 2.42Q223.96 3.08 226.04 3.08L226.04 3.08Q229.28 3.08 230.82 1.62Q232.36 0.16 232.36-2.80L232.36-2.80L232.36-3.72Q229.92-1.04 225.56-1.04L225.56-1.04Q222.60-1.04 220.14-2.34Q217.68-3.64 216.24-6Q214.80-8.36 214.80-11.44L214.80-11.44Q214.80-14.52 216.24-16.88Q217.68-19.24 220.14-20.54Q222.60-21.84 225.56-21.84L225.56-21.84Q230.24-21.84 232.68-18.76L232.68-18.76L232.68-21.52ZM226.80-6.16Q229.28-6.16 230.86-7.62Q232.44-9.08 232.44-11.44L232.44-11.44Q232.44-13.80 230.86-15.26Q229.28-16.72 226.80-16.72L226.80-16.72Q224.32-16.72 222.72-15.26Q221.12-13.80 221.12-11.44L221.12-11.44Q221.12-9.08 222.72-7.62Q224.32-6.16 226.80-6.16L226.80-6.16Z M254.64 0.32Q251.24 0.32 248.54-1.10Q245.84-2.52 244.32-5.04Q242.80-7.56 242.80-10.76L242.80-10.76Q242.80-13.96 244.32-16.48Q245.84-19 248.54-20.42Q251.24-21.84 254.64-21.84L254.64-21.84Q258.04-21.84 260.72-20.42Q263.40-19 264.92-16.48Q266.44-13.96 266.44-10.76L266.44-10.76Q266.44-7.56 264.92-5.04Q263.40-2.52 260.72-1.10Q258.04 0.32 254.64 0.32L254.64 0.32ZM254.64-4.80Q257.04-4.80 258.58-6.42Q260.12-8.04 260.12-10.76L260.12-10.76Q260.12-13.48 258.58-15.10Q257.04-16.72 254.64-16.72L254.64-16.72Q252.24-16.72 250.68-15.10Q249.12-13.48 249.12-10.76L249.12-10.76Q249.12-8.04 250.68-6.42Q252.24-4.80 254.64-4.80L254.64-4.80Z"/></g>
</svg>
</g><g opacity="1" transform="rotate(0 135.0998 194.4978)">
<svg width="4" height="104" x="135.0998" y="194.4978" version="1.1" preserveAspectRatio="none" viewBox="0 0 4 104">
  <defs><rect x="0" y="0" width="4" height="104" rx="0px" ry="0px" id="id-tBXipXk0b1704877814935"></rect></defs><use class="companyName shapeStroke-str" style="stroke-width:0;" xlink:href="#id-tBXipXk0b1704877814935"></use>
</svg>
</g></svg></svg>