<svg version="1.1" preserveAspectRatio="none" xmlns="http://www.w3.org/2000/svg" width="500" height="500" viewBox="0 0 500 500"><rect width="100%" height="100%" fill="#E1E1E1" fill-opacity="1"/><svg viewBox="827.4282 508.9481 434.6848 50" width="333" height="38.30361678163119" x="83.5px" y="230.8482px" xmlns="http://www.w3.org/2000/svg" xmlns:xlink="http://www.w3.org/1999/xlink" preserveAspectRatio="none"><defs></defs><style>.background {fill:#E1E1E1;fill-opacity:1;}.companyName {fill:#03D069;fill-opacity:1;}.icon3 {fill:#B6B5B5;fill-opacity:1;}.icon3-str {stroke:#B6B5B5;stroke-opacity:1;}.shape {fill:#F1F1F1;fill-opacity:1;}.shapeStroke-str {stroke:#03D069;stroke-opacity:1;}</style><g opacity="1" transform="rotate(0 827.4282 508.9481)">
<svg width="50.0001" height="50" x="827.4282" y="508.9481" version="1.1" preserveAspectRatio="none" viewBox="0 0 50.0001 50">
  <defs><rect x="0" y="0" width="50.0001" height="50" rx="10px" ry="10px" id="id-5kldYRpCP1704877800600"></rect></defs><use class="companyName shapeStroke-str" style="stroke-width:0;" xlink:href="#id-5kldYRpCP1704877800600"></use>
</svg>
</g><g opacity="1" transform="rotate(0 842.4282 523.9482)">
<svg width="20.0001" height="19.9999" x="842.4282" y="523.9482" version="1.1" preserveAspectRatio="none" viewBox="19.9990177154541 20.002145767211914 159.99905395507812 159.9978485107422">
  <g transform="matrix(1 0 0 1 0 0)"><g><path d="M164.596 180c-2.893 0-5.421-1.7-7.682-5.158-4.789.329-11.079.287-17.667.19-2.357-.035-4.392-.065-5.537-.035-2.446.064-5.989.647-9.74 1.264-8.248 1.357-17.597 2.895-22.439.335a12.15 12.15 0 01-3.15-2.396 429.78 429.78 0 00-1.47 2.253c-1.554 2.4-3.722 3.6-6.268 3.471-2.953-.151-6.403-2.069-10.302-5.718l-.008.003c-7.488 2.423-21.665 3.54-33.056 4.438-4.242.334-8.25.65-11.213.984-6.895.777-11.476-.385-13.617-3.454-1.082-1.552-1.307-3.344-1.487-4.784-2.584-20.65.314-38.181 5.462-58.15.706-2.739 2.594-5.563 4.698-8.039-.68-4.948-1.681-7.293-2.664-9.596-2.933-6.869-5.966-13.973-7.146-21.432-1.248-7.89-.375-15.84.47-23.529.364-3.316-.143-6.625-.681-10.127-.54-3.522-1.099-7.163-.696-10.834.128-1.163.303-2.756 1.493-4 1.189-1.243 2.932-1.673 4.616-2.006 21.952-4.344 46.455-3.851 70.15-3.374 8.61.173 16.743.337 24.754.28 1.27-.009 2.541-.024 3.814-.038 8.852-.101 18.004-.206 26.773 1.589.796.163 1.6.323 2.406.484 9.512 1.895 19.349 3.855 23.486 11.596 2.993 5.601 2.121 14.039 1.42 20.819-.126 1.22-.245 2.372-.333 3.429l-3.933 47.387c.784 4.257 1.54 9.217 2.224 14.992 1.984 16.734 2.654 34.681 1.791 48.009-.157 2.429-.479 5.207-2.318 7.432-2.037 2.465-5.227 2.862-8.312 3.246-.813.101-1.653.206-2.452.347-.469.08-.932.122-1.386.122zm-4.561-5.458c1.577 1.981 3.357 3.033 5.475 2.659.867-.153 1.743-.262 2.59-.368 2.791-.347 5.202-.647 6.551-2.28 1.323-1.6 1.566-3.781 1.702-5.878.84-12.976.158-31.183-1.778-47.515a261.97 261.97 0 00-.479-3.81l-1.402 16.895c-.341 4.108-1.829 7.859-3.268 11.486-1.377 3.471-2.801 7.061-3.212 10.963-.205 1.947.403 4.018.99 6.021.575 1.96 1.118 3.812.968 5.613-.184 2.206-1.371 3.865-3.628 5.072-.966.515-2.517.884-4.509 1.142zm-76.993-1.552c2.804 2.481 5.495 4.107 7.74 4.222 1.584.084 2.807-.629 3.846-2.233a393.663 393.663 0 011.996-3.053c-1.666-2.628-2.672-5.779-3.659-8.869-1.225-3.835-2.382-7.457-4.671-9.969-3.387-3.716-5.282-8.494-5.479-13.817-.112-3.012.308-6.127 1.229-9.208-.772.023-1.543.041-2.314.053-1.655.026-3.396-.012-4.891-.786-2.205-1.141-2.994-3.3-3.519-5.463-.117-.482-.231-.966-.342-1.45a20.995 20.995 0 00-8.354 10.901c-1.831 5.466-1.406 11.486 1.164 16.516 2.013 3.94 5.308 9.18 9.013 14.022a40.872 40.872 0 002.46-.077c2.949-.191 6.965 1.339 8.242 3.922.431.871.459 1.804.081 2.696-.471 1.109-1.498 1.968-2.542 2.593zm-51.506-63.913c-1.266 1.773-2.113 3.415-2.48 4.842-5.07 19.669-7.928 36.913-5.397 57.137.158 1.262.321 2.567 1.02 3.569 1.901 2.725 7.074 2.758 11.08 2.307 3.009-.339 7.038-.657 11.304-.993 10.584-.834 23.604-1.86 31.089-3.915a72.718 72.718 0 01-3.137-3.546 87.848 87.848 0 01-1.552-1.922c-5.377-.098-12.172-.838-15.944-1.825-2.37-.621-4.579-1.113-6.716-1.59-6.888-1.536-11.864-2.646-13.81-6.268-5.218-9.714-5.127-21.331-5.039-32.565.052-6.581-.111-11.476-.418-15.231zm68.398 62.781a9.619 9.619 0 002.869 2.339c4.031 2.132 13.287.609 20.724-.615 3.846-.633 7.479-1.231 10.112-1.299 1.201-.031 3.164-.002 5.649.035 4.332.064 10.874.161 16.12-.107-1.793-3.524-3.307-7.905-4.896-12.502a299.01 299.01 0 00-2.027-5.737c-3.612 4.929-8.227 9.692-14.805 12.112-3.867 1.422-9.312 1.955-13.001-.811-3.539-2.654-3.848-6.946-3.861-10.76l-.016-4.929c-5.012 5.533-10.657 12.988-16.868 22.274zm50.436-20.594c.952 2.467 1.839 5.032 2.712 7.557 1.702 4.925 3.358 9.715 5.288 13.18 2.246-.21 4.013-.527 4.892-.997 2.932-1.567 2.501-3.549 1.334-7.528-.631-2.151-1.346-4.589-1.085-7.069.45-4.272 1.944-8.037 3.389-11.678 1.429-3.602 2.778-7.004 3.086-10.71l2.323-27.99c-1.857-9.942-4.135-17.479-6.581-21.573-.585 5.802-.763 12.362-.15 19.919.27 3.331-.423 6.441-2.063 9.279.041 1.233.027 2.47-.045 3.705-.59 10.217-4.699 21.041-12.564 33.091a67 67 0 01-.536.814zm-73.455 15.253a67.598 67.598 0 004.058 4.512c1.07-.526 1.88-1.158 2.104-1.688a.46.46 0 00-.015-.439c-.672-1.359-3.459-2.555-5.628-2.414-.168.011-.341.021-.519.029zm10.025-36.565c-2.259 6.818-2.3 15.093 3.365 21.308 2.688 2.949 3.991 7.027 5.25 10.971.82 2.566 1.616 5.06 2.747 7.177 6.9-10.255 13.024-18.156 18.486-23.81l-.035-10.691c-6.68 1.812-12.281 3.637-14.216 5.782-.503.557-1.362.602-1.92.1s-.603-1.36-.1-1.917c2.496-2.767 8.447-4.696 16.227-6.777l-.013-3.955a31.419 31.419 0 00-.078-2.163 174.764 174.764 0 01-29.713 3.975zm32.571 16.762l.025 7.788c.011 3.306.234 6.693 2.774 8.598 2.819 2.115 7.38 1.555 10.429.434 6.554-2.41 11.057-7.526 14.575-12.608-.905-2.245-1.87-4.366-2.932-6.234-2.549-4.483-5.314-6.847-8.453-7.228-3.883-.472-8.773 2.026-14.539 7.419a70.216 70.216 0 00-1.879 1.831zm-84.933-33.386c.153 3.657.125 7.351.096 11.001-.085 10.893-.173 22.157 4.716 31.26 1.357 2.527 6.057 3.575 12.006 4.902 2.06.459 4.394.98 6.813 1.614 3.125.819 8.436 1.457 13.15 1.672-3.415-4.673-6.324-9.44-7.995-12.71-2.9-5.676-3.381-12.459-1.321-18.612a23.699 23.699 0 0110.323-12.866 115.093 115.093 0 01-2.199-27.44 68.592 68.592 0 00-4.532-.312l-4.688 22.126c-1.909 9.009-3.883 18.325-2.994 27.524.703 7.277-2.219 9.394-4.795 9.889-1.4.269-5.016.36-8.344-4.594-5.451-8.116-7.265-17.718-8.866-26.191l-1.37-7.263zm1.064-9.012l2.981 15.774c1.628 8.617 3.312 17.528 8.453 25.182.63.937 2.891 3.955 5.572 3.44 1.19-.229 1.936-.966 2.349-2.32.354-1.16.439-2.722.253-4.643-.929-9.614 1.089-19.137 3.04-28.347l4.577-21.6c-.883.008-1.765.037-2.649.085-4.906.272-8.764 1.178-11.795 2.77-3.623 1.903-8.12 5.215-11.738 8.645-.36.34-.707.678-1.043 1.014zm99.334 30.377c.434 0 .86.026 1.281.077 4.055.492 7.486 3.299 10.49 8.583.852 1.499 1.638 3.133 2.377 4.85 7.252-11.296 11.057-21.413 11.625-30.904-2.239 2.344-5.235 4.465-9.101 6.45-8.33 4.277-19.128 7.064-28.655 9.523-1.187.306-2.366.611-3.524.914l.029 8.741c5.928-5.542 11.033-8.234 15.478-8.234zm-15.619-9.339a33.86 33.86 0 01.093 2.778l.011 3.248c.931-.242 1.882-.488 2.853-.738 9.39-2.424 20.033-5.17 28.092-9.309 4.901-2.517 8.34-5.302 10.355-8.408-.23-4.194-1.151-8.317-2.721-12.113-2.27-5.489-5.753-10.099-10.353-13.704-6.231-4.883-13.792-7.584-22.047-9.492a29.114 29.114 0 01-2.755 5.061 191.77 191.77 0 01-13.279 17.23c4.643 1.622 9.245 3.279 13.769 4.909 5.242 1.888 11.759 4.236 15.684 8.8 1.632 1.899 1.479 3.343 1.063 4.22-.593 1.251-1.898 1.809-3.075 2.235a165.115 165.115 0 01-17.69 5.283zm-43.911-4.349c.164.742.336 1.483.515 2.222.444 1.829.955 3.084 2.128 3.692.934.483 2.234.504 3.596.482a167.27 167.27 0 003.317-.086c.344-.861.727-1.716 1.149-2.562 1.28-2.569 2.836-5.014 4.559-7.368a87.01 87.01 0 00-2.652.294c-5.323.673-9.323 1.726-12.587 3.315a.272.272 0 00-.025.011zm18.881-3.891c-2.216 2.826-4.203 5.758-5.743 8.848a29.71 29.71 0 00-.573 1.218c9.5-.512 19.009-1.827 28.257-3.896-.621-2.696-1.79-3.794-3.019-4.511-1.546-.902-3.627-1.172-5.455-1.354a88.022 88.022 0 00-13.467-.305zm4.749-2.843c3.001 0 6.002.149 8.987.446 2.114.21 4.538.534 6.556 1.711 2.551 1.487 3.752 3.883 4.319 6.235a162.446 162.446 0 0017.183-5.144c.341-.123 1.379-.499 1.543-.844.063-.133-.063-.585-.669-1.289-3.458-4.021-9.601-6.234-14.538-8.012-4.857-1.749-9.802-3.531-14.786-5.263-.251.282-.503.562-.756.843-1.242 1.378-2.529 2.766-3.773 4.109-2.195 2.369-4.42 4.77-6.519 7.242.82-.023 1.637-.034 2.453-.034zM72.877 92.474a112.26 112.26 0 00-.077 5.474c.072 6.811.769 13.626 2.076 20.323 3.421-1.566 7.525-2.614 12.84-3.286a89.785 89.785 0 015.234-.507c2.586-3.201 5.416-6.256 8.199-9.259 1.234-1.332 2.511-2.71 3.737-4.07a465.914 465.914 0 00-9.84-3.258c-7.115-2.262-14.573-4.377-22.169-5.417zm56.692-16.659c7.27 1.943 14.096 4.69 19.796 9.158 4.973 3.897 8.737 8.877 11.188 14.803a39.112 39.112 0 012.263 7.605c.111-.905.128-1.833.051-2.786-.731-9.021-.366-16.64.475-23.252-2.536-2.654-6.009-4.768-9.987-6.048a16.957 16.957 0 01-.41 5.473 1.36 1.36 0 01-2.642-.641c.475-1.955.508-3.821.251-5.559-3.532-.673-7.343-.48-11.851.028-3.013.34-6.078.764-9.134 1.219zM73.294 38.543c-8.406 0-16.85.123-25.369.272-4.471.078-8.412.293-11.354 2.139-1.531.961-2.821 2.42-3.944 4.46-1.929 3.506-2.92 9.732-2.867 18.006.048 7.462.931 14.702 1.741 18.989l3.535 18.71c3.797-3.563 8.307-6.864 12.118-8.865 3.384-1.777 7.607-2.784 12.91-3.078a62.476 62.476 0 013.376-.093l2.802-13.225-1.327-.344c-13.638-3.53-24.863-6.913-24.073-12.581.527-3.78 7.321-7.614 23.45-13.232 6.148-2.141 14.144-3.532 21.199-4.759 2.151-.374 4.183-.728 6.112-1.091a269.842 269.842 0 0124.712-3.478c-2.043-.41-4.237-.594-6.48-.746-12.163-.823-24.311-1.084-36.541-1.084zm-.279 51.208c7.864 1.055 15.541 3.227 22.857 5.552a480.64 480.64 0 0110.969 3.645 189.412 189.412 0 0013.799-17.8 26.537 26.537 0 002.301-4.124l-.508-.105c-10.128 1.595-20.46 3.22-30.592 3.221-5.923 0-11.776-.555-17.484-1.996a111.724 111.724 0 00-1.342 11.607zm93.19-9.282c.57.676 1.089 1.378 1.554 2.106 1.321 2.069 3.309 6.197 5.322 14.143l3.194-38.48c.09-1.085.21-2.25.338-3.484.663-6.412 1.488-14.393-1.114-19.262-3.532-6.608-12.727-8.441-21.619-10.212-.811-.162-1.619-.323-2.42-.486-8.484-1.737-17.488-1.634-26.196-1.534a818.78 818.78 0 01-3.826.038c-8.047.058-16.199-.107-24.828-.28-23.551-.474-47.903-.964-69.567 3.323-1.257.249-2.538.548-3.179 1.218-.513.537-.642 1.377-.756 2.421-.364 3.316.143 6.625.681 10.127.54 3.522 1.099 7.164.696 10.834-.825 7.511-1.678 15.278-.487 22.809 1.128 7.128 4.093 14.074 6.961 20.792l.127.301-2.254-11.93c-.832-4.404-1.739-11.832-1.788-19.475-.057-8.86 1.02-15.364 3.203-19.331 1.351-2.456 2.947-4.239 4.88-5.452 3.824-2.4 8.985-2.49 12.754-2.555 20.974-.366 41.508-.578 62.144.819 4.299.291 8.453.703 12.021 2.518.219.111.439.25.658.413a272.486 272.486 0 0135.083-.196c.85.05 1.815.032 2.837.013 3.658-.068 8.208-.154 9.675 3.384 2.631 6.347 1.038 13.129-.978 21.714-1.085 4.603-2.29 9.733-3.116 15.704zm-99.997 8.673a72.84 72.84 0 014.103.292c.259-4.028.73-8.044 1.411-12.023a53.908 53.908 0 01-.864-.271 48.733 48.733 0 00-1.983-.582l-2.667 12.584zm86.642-16.828c4.212 1.146 7.996 3.145 10.962 5.73.816-5.203 1.887-9.76 2.859-13.899 1.98-8.427 3.41-14.516 1.113-20.056-.757-1.827-3.987-1.767-7.112-1.708-1.076.02-2.092.039-3.048-.017a270.04 270.04 0 00-32.625.054c1.627 2.417 3.072 5.847 3.92 9.219a48.006 48.006 0 015.321 1.74c6.054 2.384 11.321 6.334 14.83 11.12 1.835 2.505 3.105 5.151 3.78 7.817zm-78.01 3.151c12.575 3.215 26.09 1.929 39.461-.041a1050.07 1050.07 0 00-4.314-.716c-10.761-1.77-21.888-3.6-31.465-8.1a26.687 26.687 0 00-1.18-.522c-.849 2.14-1.437 4.38-1.914 6.538a114.45 114.45 0 00-.588 2.841zm-5.402-1.567a56.21 56.21 0 012.254.659c.174.056.348.111.523.165.175-.896.362-1.791.559-2.683.402-1.821 1.009-4.283 1.99-6.791-1.553-.334-2.665-.177-3.283.478-.373.395-.523.997-.693 1.804l-1.35 6.368zm9.04-10.289c.487.206.897.399 1.202.543 9.234 4.339 20.172 6.138 30.749 7.878 4.008.659 8.055 1.325 12.038 2.135l1.664-.262c1.284-3.976 1.837-8.172 2.409-12.515.12-.909.24-1.822.368-2.735.178-1.275.071-2.943-.281-4.783-8.23-1.886-18.034-1.957-30.23-.262-3.87.538-8.285 1.28-11.706 3.292-2.84 1.671-4.801 4.043-6.213 6.709zm51.032-8.986c.225 1.605.272 3.117.093 4.404-.127.907-.246 1.812-.365 2.715-.512 3.885-1.033 7.842-2.134 11.7 3.76-.576 7.559-1.122 11.294-1.543 3.751-.423 7.683-.713 11.459-.191-.747-2.199-1.882-4.105-2.982-5.606-3.209-4.378-8.051-8-13.633-10.198a44.36 44.36 0 00-3.732-1.281zm-7.76-11.982a267.233 267.233 0 00-29.64 3.879c-1.948.367-3.989.722-6.15 1.098-6.952 1.209-14.833 2.58-20.77 4.648-2.875 1.001-8.857 3.085-13.717 5.359-7.09 3.316-7.866 5.19-7.935 5.685-.091.655.398 2.455 6.897 5.025 4.597 1.818 10.457 3.335 15.165 4.553l1.208.313 1.32-6.231c.19-.896.45-2.123 1.374-3.103 1.691-1.793 4.214-1.706 6.392-1.149l.153-.297c1.832-3.491 4.209-6.061 7.267-7.859 3.853-2.266 8.582-3.068 12.711-3.642 11.881-1.651 21.602-1.661 29.875.016a32.35 32.35 0 00-.763-2.225c-1.125-2.93-2.392-4.985-3.387-6.07z" data-color="1" class="background"></path></g></g>
</svg>
</g><g opacity="1" transform="rotate(0 895.4283 508.9481)">
<svg width="366.6847" height="50" x="895.4283" y="508.9481" version="1.1" preserveAspectRatio="none" viewBox="0.84 -28.56 269.00000000000006 36.68">
  <g transform="matrix(1 0 0 1 0 0)" class="companyName"><path id="id-D6z1nYkh10" d="M12.64 0.56Q9.24 0.56 6.04-0.28Q2.84-1.12 0.84-2.52L0.84-2.52L3.44-8.36Q5.32-7.12 7.80-6.36Q10.28-5.60 12.68-5.60L12.68-5.60Q17.24-5.60 17.24-7.88L17.24-7.88Q17.24-9.08 15.94-9.66Q14.64-10.24 11.76-10.88L11.76-10.88Q8.60-11.56 6.48-12.34Q4.36-13.12 2.84-14.84Q1.32-16.56 1.32-19.48L1.32-19.48Q1.32-22.04 2.72-24.10Q4.12-26.16 6.90-27.36Q9.68-28.56 13.72-28.56L13.72-28.56Q16.48-28.56 19.16-27.94Q21.84-27.32 23.88-26.12L23.88-26.12L21.44-20.24Q17.44-22.40 13.68-22.40L13.68-22.40Q11.32-22.40 10.24-21.70Q9.16-21 9.16-19.88L9.16-19.88Q9.16-18.76 10.44-18.20Q11.72-17.64 14.56-17.04L14.56-17.04Q17.76-16.36 19.86-15.58Q21.96-14.80 23.50-13.10Q25.04-11.40 25.04-8.48L25.04-8.48Q25.04-5.96 23.64-3.92Q22.24-1.88 19.44-0.66Q16.64 0.56 12.64 0.56L12.64 0.56Z M41.96-22.04Q44.92-22.04 47.34-20.66Q49.76-19.28 51.18-16.74Q52.60-14.20 52.60-10.84L52.60-10.84Q52.60-7.48 51.18-4.94Q49.76-2.40 47.34-1.02Q44.92 0.36 41.96 0.36L41.96 0.36Q38.16 0.36 35.92-1.92L35.92-1.92L35.92 7.76L28.32 7.76L28.32-21.68L35.56-21.68L35.56-19.52Q37.68-22.04 41.96-22.04L41.96-22.04ZM40.36-5.68Q42.36-5.68 43.64-7.06Q44.92-8.44 44.92-10.84L44.92-10.84Q44.92-13.24 43.64-14.62Q42.36-16 40.36-16L40.36-16Q38.36-16 37.08-14.62Q35.80-13.24 35.80-10.84L35.80-10.84Q35.80-8.44 37.08-7.06Q38.36-5.68 40.36-5.68L40.36-5.68Z M64.88-22.04Q70.28-22.04 73.12-19.58Q75.96-17.12 75.96-12.04L75.96-12.04L75.96 0L68.88 0L68.88-2.80Q67.24 0.36 62.48 0.36L62.48 0.36Q59.96 0.36 58.12-0.52Q56.28-1.40 55.34-2.90Q54.40-4.40 54.40-6.32L54.40-6.32Q54.40-9.40 56.76-11.10Q59.12-12.80 64.04-12.80L64.04-12.80L68.36-12.80Q68.16-16.24 63.76-16.24L63.76-16.24Q62.20-16.24 60.60-15.74Q59-15.24 57.88-14.36L57.88-14.36L55.32-19.52Q57.12-20.72 59.70-21.38Q62.28-22.04 64.88-22.04L64.88-22.04ZM64.60-4.44Q65.92-4.44 66.92-5.08Q67.92-5.72 68.36-6.96L68.36-6.96L68.36-8.84L65.08-8.84Q61.76-8.84 61.76-6.64L61.76-6.64Q61.76-5.64 62.52-5.04Q63.28-4.44 64.60-4.44L64.60-4.44Z M92.16 0.36Q88.56 0.36 85.72-1.08Q82.88-2.52 81.30-5.08Q79.72-7.64 79.72-10.88L79.72-10.88Q79.72-14.12 81.30-16.66Q82.88-19.20 85.72-20.62Q88.56-22.04 92.16-22.04L92.16-22.04Q95.84-22.04 98.52-20.46Q101.20-18.88 102.32-16.08L102.32-16.08L96.44-13.08Q94.96-16 92.12-16L92.12-16Q90.08-16 88.74-14.64Q87.40-13.28 87.40-10.88L87.40-10.88Q87.40-8.44 88.74-7.06Q90.08-5.68 92.12-5.68L92.12-5.68Q94.96-5.68 96.44-8.60L96.44-8.60L102.32-5.60Q101.20-2.80 98.52-1.22Q95.84 0.36 92.16 0.36L92.16 0.36Z M127.12-10.80Q127.12-10.72 127.00-8.92L127.00-8.92L111.24-8.92Q111.72-7.24 113.10-6.34Q114.48-5.44 116.56-5.44L116.56-5.44Q118.12-5.44 119.26-5.88Q120.40-6.32 121.56-7.32L121.56-7.32L125.56-3.16Q122.40 0.36 116.32 0.36L116.32 0.36Q112.52 0.36 109.64-1.08Q106.76-2.52 105.18-5.08Q103.60-7.64 103.60-10.88L103.60-10.88Q103.60-14.08 105.14-16.62Q106.68-19.16 109.40-20.60Q112.12-22.04 115.52-22.04L115.52-22.04Q118.76-22.04 121.40-20.70Q124.04-19.36 125.58-16.82Q127.12-14.28 127.12-10.80L127.12-10.80ZM115.56-16.64Q113.80-16.64 112.62-15.64Q111.44-14.64 111.12-12.92L111.12-12.92L120.00-12.92Q119.68-14.64 118.50-15.64Q117.32-16.64 115.56-16.64L115.56-16.64Z M131.00 0L131.00-28L144.24-28Q148.84-28 152.40-26.28Q155.96-24.56 157.92-21.40Q159.88-18.24 159.88-14L159.88-14Q159.88-9.76 157.92-6.60Q155.96-3.44 152.40-1.72Q148.84 0 144.24 0L144.24 0L131.00 0ZM138.92-6.32L143.92-6.32Q147.52-6.32 149.70-8.36Q151.88-10.40 151.88-14L151.88-14Q151.88-17.60 149.70-19.64Q147.52-21.68 143.92-21.68L143.92-21.68L138.92-21.68L138.92-6.32Z M174.56 0.36Q171.08 0.36 168.28-1.08Q165.48-2.52 163.90-5.08Q162.32-7.64 162.32-10.88L162.32-10.88Q162.32-14.08 163.90-16.64Q165.48-19.20 168.26-20.62Q171.04-22.04 174.56-22.04L174.56-22.04Q178.08-22.04 180.88-20.62Q183.68-19.20 185.24-16.66Q186.80-14.12 186.80-10.88L186.80-10.88Q186.80-7.64 185.24-5.08Q183.68-2.52 180.88-1.08Q178.08 0.36 174.56 0.36L174.56 0.36ZM174.56-5.68Q176.56-5.68 177.84-7.06Q179.12-8.44 179.12-10.88L179.12-10.88Q179.12-13.28 177.84-14.64Q176.56-16 174.56-16L174.56-16Q172.56-16 171.28-14.64Q170-13.28 170-10.88L170-10.88Q170-8.44 171.28-7.06Q172.56-5.68 174.56-5.68L174.56-5.68Z M206.40-21.68L213.64-21.68L213.64-3.96Q213.64 2.08 210.36 5.10Q207.08 8.12 200.92 8.12L200.92 8.12Q197.72 8.12 194.92 7.40Q192.12 6.68 190.16 5.28L190.16 5.28L192.92-0.04Q194.24 1.04 196.26 1.66Q198.28 2.28 200.24 2.28L200.24 2.28Q203.24 2.28 204.64 0.96Q206.04-0.36 206.04-2.96L206.04-2.96L206.04-3.68Q203.84-1.12 199.60-1.12L199.60-1.12Q196.72-1.12 194.28-2.42Q191.84-3.72 190.40-6.10Q188.96-8.48 188.96-11.60L188.96-11.60Q188.96-14.68 190.40-17.06Q191.84-19.44 194.28-20.74Q196.72-22.04 199.60-22.04L199.60-22.04Q204.24-22.04 206.40-19.04L206.40-19.04L206.40-21.68ZM201.40-7.16Q203.44-7.16 204.78-8.40Q206.12-9.64 206.12-11.60L206.12-11.60Q206.12-13.56 204.80-14.78Q203.48-16 201.40-16L201.40-16Q199.32-16 197.98-14.78Q196.64-13.56 196.64-11.60L196.64-11.60Q196.64-9.64 198-8.40Q199.36-7.16 201.40-7.16L201.40-7.16Z M234.60-21.68L241.84-21.68L241.84-3.96Q241.84 2.08 238.56 5.10Q235.28 8.12 229.12 8.12L229.12 8.12Q225.92 8.12 223.12 7.40Q220.32 6.68 218.36 5.28L218.36 5.28L221.12-0.04Q222.44 1.04 224.46 1.66Q226.48 2.28 228.44 2.28L228.44 2.28Q231.44 2.28 232.84 0.96Q234.24-0.36 234.24-2.96L234.24-2.96L234.24-3.68Q232.04-1.12 227.80-1.12L227.80-1.12Q224.92-1.12 222.48-2.42Q220.04-3.72 218.60-6.10Q217.16-8.48 217.16-11.60L217.16-11.60Q217.16-14.68 218.60-17.06Q220.04-19.44 222.48-20.74Q224.92-22.04 227.80-22.04L227.80-22.04Q232.44-22.04 234.60-19.04L234.60-19.04L234.60-21.68ZM229.60-7.16Q231.64-7.16 232.98-8.40Q234.32-9.64 234.32-11.60L234.32-11.60Q234.32-13.56 233-14.78Q231.68-16 229.60-16L229.60-16Q227.52-16 226.18-14.78Q224.84-13.56 224.84-11.60L224.84-11.60Q224.84-9.64 226.20-8.40Q227.56-7.16 229.60-7.16L229.60-7.16Z M257.60 0.36Q254.12 0.36 251.32-1.08Q248.52-2.52 246.94-5.08Q245.36-7.64 245.36-10.88L245.36-10.88Q245.36-14.08 246.94-16.64Q248.52-19.20 251.30-20.62Q254.08-22.04 257.60-22.04L257.60-22.04Q261.12-22.04 263.92-20.62Q266.72-19.20 268.28-16.66Q269.84-14.12 269.84-10.88L269.84-10.88Q269.84-7.64 268.28-5.08Q266.72-2.52 263.92-1.08Q261.12 0.36 257.60 0.36L257.60 0.36ZM257.60-5.68Q259.60-5.68 260.88-7.06Q262.16-8.44 262.16-10.88L262.16-10.88Q262.16-13.28 260.88-14.64Q259.60-16 257.60-16L257.60-16Q255.60-16 254.32-14.64Q253.04-13.28 253.04-10.88L253.04-10.88Q253.04-8.44 254.32-7.06Q255.60-5.68 257.60-5.68L257.60-5.68Z"/></g>
</svg>
</g></svg></svg>