<svg version="1.1" preserveAspectRatio="none" xmlns="http://www.w3.org/2000/svg" width="500" height="500" viewBox="0 0 500 500"><rect width="100%" height="100%" fill="#FFFFFF" fill-opacity="1"/><svg viewBox="-11.5047 137.52 383.0094 93.8" width="333" height="81.55256763933208" x="83.5px" y="209.2237px" xmlns="http://www.w3.org/2000/svg" xmlns:xlink="http://www.w3.org/1999/xlink" preserveAspectRatio="none"><defs></defs><style>.companyName {fill:#0B3B63;fill-opacity:1;}.icon2 {fill:#0B3B63;fill-opacity:1;}.icon3 {fill:#FFA8C5;fill-opacity:1;}.icon3-str {stroke:#FFA8C5;stroke-opacity:1;}.shapeStroke-str {stroke:#0B3B63;stroke-opacity:1;}</style><g opacity="1" transform="rotate(60 192.8861 171.32)">
<svg width="39.0754" height="52.3194" x="192.8861" y="171.32" version="1.1" preserveAspectRatio="none" viewBox="-13.77558135986328 -22.76799774169922 67.21858215332031 90.0009994506836">
  <g transform="matrix(1 0 0 1 0 0)" class="icon3"><path d="M17.91,25.109c0.283,0.123,7.021,2.999,15.371,2.999c7.943,0,14.506-2.576,19.512-7.651l0.65-0.659l-0.823-0.423  c-0.229-0.117-5.684-2.867-13.618-2.867c-7.168,0-13.919,2.219-20.088,6.595c8.212-8.743,18.012-17.524,29.383-25.016L47.548-3.05  C40.8,1.396,34.603,6.293,28.956,11.367c9.133-18.272-1.117-33.224-1.225-33.377l-0.529-0.758l-0.562,0.737  c-11.69,15.25,0.082,34.991,0.202,35.189l0.054,0.087c-5.546,5.146-10.53,10.437-14.95,15.595  C19.167,11.631,9.774-2.088,9.671-2.234L9.137-2.993L8.574-2.256c-11.11,14.498-1.022,33.042,0.104,35.007  C3.066,39.642-1.504,46.155-5.018,51.598c6.801-16.952-2.392-30.384-2.494-30.528l-0.533-0.76l-0.563,0.737  c-11.688,15.251,0.088,34.995,0.208,35.191l0.238,0.39c-3.653,6.044-5.522,9.893-5.583,10.021l1.227,0.584  c0.096-0.2,4.775-9.824,13.931-22.7l0.115,0.05c0.28,0.122,7.016,2.999,15.37,2.999c7.94,0,14.503-2.576,19.506-7.648l0.65-0.662  l-0.825-0.422c-0.229-0.117-5.678-2.865-13.618-2.865c-6.939,0-13.488,2.086-19.497,6.191c3.978-5.434,8.709-11.352,14.185-17.329  L17.91,25.109z M28.047,10.12l-0.688-30.125C29.452-16.239,34.861-4.187,28.047,10.12z M26.028-18.666l0.653,28.558  C24.223,4.627,19.75-7.83,26.028-18.666z M21.163,24.823l28.381-3.296c-4.399,3.457-9.85,5.221-16.263,5.221  C28.317,26.748,23.864,25.662,21.163,24.823z M50.703,20.027L20.78,23.503c5.644-3.725,11.754-5.635,18.222-5.635  C44.404,17.868,48.671,19.231,50.703,20.027z M9.987,29.894L9.297-0.227C11.398,3.538,16.812,15.572,9.987,29.894z M7.967,1.104  l0.654,28.564C6.162,24.404,1.683,11.94,7.967,1.104z M-7.194,53.202l-0.69-30.132C-5.787,26.828-0.365,38.869-7.194,53.202z   M-9.214,24.411l0.654,28.555C-11.021,47.698-15.492,35.243-9.214,24.411z M4.789,44.297l28.368-3.296  c-4.4,3.455-9.849,5.216-16.258,5.216C11.938,46.217,7.491,45.136,4.789,44.297z M22.616,37.342c5.409,0,9.676,1.363,11.706,2.159  L4.385,42.979C10.029,39.252,16.146,37.342,22.616,37.342z"></path></g>
</svg>
</g><g opacity="1" transform="rotate(0 210 198.52)">
<svg width="161.5047" height="1.6" x="210" y="198.52" version="1.1" preserveAspectRatio="none" viewBox="0 0 161.5047 1.6">
  <defs><rect x="0" y="0" width="161.5047" height="1.6" rx="0px" ry="0px" id="id-R9TavoXY1704877743922"></rect></defs><use class="icon3 shapeStroke-str" style="stroke-width:0;" xlink:href="#id-R9TavoXY1704877743922"></use>
</svg>
</g><g opacity="1" transform="rotate(0 -11.5047 137.52)">
<svg width="383.0094" height="36" x="-11.5047" y="137.52" version="1.1" preserveAspectRatio="none" viewBox="2.32 -31.2 336.2 31.6">
  <g transform="matrix(1 0 0 1 0 0)" class="companyName"><path id="id-D6z1nYkh10" d="M2.92-0.44L2.32-9.40L3.80-9.40Q4.08-7.60 4.86-6.16Q5.64-4.72 6.82-3.72Q8-2.72 9.54-2.18Q11.08-1.64 12.88-1.64L12.88-1.64Q15.84-1.64 17.56-3.04Q19.28-4.44 19.28-6.84L19.28-6.84Q19.28-7.84 18.94-8.68Q18.60-9.52 17.80-10.30Q17-11.08 15.66-11.84Q14.32-12.60 12.28-13.48L12.28-13.48Q9.80-14.56 8.12-15.56Q6.44-16.56 5.44-17.64Q4.44-18.72 4.02-19.94Q3.60-21.16 3.60-22.72L3.60-22.72Q3.60-24.56 4.26-26.12Q4.92-27.68 6.12-28.82Q7.32-29.96 8.96-30.58Q10.60-31.20 12.56-31.20L12.56-31.20Q14.32-31.20 15.84-30.64Q17.36-30.08 18.92-28.84L18.92-28.84L19.96-30.64L20.88-30.64L21.32-22.68L19.84-22.68Q18.88-25.96 17.06-27.56Q15.24-29.16 12.68-29.16L12.68-29.16Q10.24-29.16 8.80-27.96Q7.36-26.76 7.36-24.72L7.36-24.72Q7.36-23.76 7.68-22.98Q8-22.20 8.72-21.50Q9.44-20.80 10.60-20.10Q11.76-19.40 13.48-18.64L13.48-18.64Q16.44-17.32 18.40-16.18Q20.36-15.04 21.52-13.90Q22.68-12.76 23.16-11.50Q23.64-10.24 23.64-8.68L23.64-8.68Q23.64-6.68 22.84-5Q22.04-3.32 20.60-2.12Q19.16-0.92 17.16-0.26Q15.16 0.40 12.76 0.40L12.76 0.40Q10.48 0.40 8.66-0.24Q6.84-0.88 4.96-2.40L4.96-2.40L3.84-0.44L2.92-0.44Z M54.12-23.08L54.12-23.08Q54.12-20.96 53.44-19.28Q52.76-17.60 51.30-16.44Q49.84-15.28 47.50-14.64Q45.16-14 41.80-14L41.80-14L38.20-14L38.20-6.28Q38.20-4.80 38.38-3.86Q38.56-2.92 39.14-2.40Q39.72-1.88 40.82-1.70Q41.92-1.52 43.72-1.52L43.72-1.52L43.72 0L29.60 0L29.60-1.52Q31-1.56 31.86-1.76Q32.72-1.96 33.20-2.44Q33.68-2.92 33.84-3.80Q34-4.68 34-6.08L34-6.08L34-24.72Q34-26.12 33.86-26.98Q33.72-27.84 33.30-28.34Q32.88-28.84 32.08-29.02Q31.28-29.20 30-29.28L30-29.28L30-30.80L42.56-30.80Q48.08-30.80 51.10-28.76Q54.12-26.72 54.12-23.08ZM38.20-28.24L38.20-16L41.04-16Q45.04-16 46.98-17.54Q48.92-19.08 48.92-22.60L48.92-22.60Q48.92-26 47.38-27.46Q45.84-28.92 42.56-28.92L42.56-28.92L38.88-28.92Q38.20-28.92 38.20-28.24L38.20-28.24Z M76.12-6.84L74.48-11.16L63.80-11.16Q63.12-9.52 62.64-8.26Q62.16-7 61.86-6.08Q61.56-5.16 61.44-4.52Q61.32-3.88 61.32-3.48L61.32-3.48Q61.32-2.36 62.04-1.94Q62.76-1.52 64.44-1.52L64.44-1.52L64.44 0L54.72 0L54.72-1.52Q55.64-1.64 56.30-1.84Q56.96-2.04 57.46-2.40Q57.96-2.76 58.34-3.34Q58.72-3.92 59.08-4.76L59.08-4.76L69.48-30.80L71.20-30.80L80.28-8.24Q81.20-6 81.88-4.66Q82.56-3.32 83.20-2.64Q83.84-1.96 84.58-1.76Q85.32-1.56 86.36-1.56L86.36-1.56L86.36 0L73.32 0L73.32-1.56Q75.44-1.56 76.24-1.96Q77.04-2.36 77.04-3.28L77.04-3.28Q77.04-3.68 77-4.02Q76.96-4.36 76.86-4.76Q76.76-5.16 76.58-5.66Q76.40-6.16 76.12-6.84L76.12-6.84ZM69.28-24.96L64.60-13.16L73.72-13.16L69.28-24.96Z M113.88-28.32L114.60-30.80L115.72-30.80L116.08-21.60L114.60-21.60Q113.72-25.12 111.20-27.12Q108.68-29.12 105.12-29.12L105.12-29.12Q102.68-29.12 100.76-28.16Q98.84-27.20 97.52-25.40Q96.20-23.60 95.50-21Q94.80-18.40 94.80-15.12L94.80-15.12Q94.80-8.68 97.48-5.22Q100.16-1.76 105.24-1.76L105.24-1.76Q112.96-1.76 115.16-9.96L115.16-9.96L116.80-9.96L116.80 0L115.40 0L114.48-3.16Q110.28 0.40 104.32 0.40L104.32 0.40Q100.92 0.40 98.18-0.68Q95.44-1.76 93.50-3.74Q91.56-5.72 90.50-8.56Q89.44-11.40 89.44-14.88L89.44-14.88Q89.44-18.52 90.56-21.52Q91.68-24.52 93.70-26.68Q95.72-28.84 98.54-30.02Q101.36-31.20 104.76-31.20L104.76-31.20Q107.16-31.20 109.28-30.52Q111.40-29.84 113.88-28.32L113.88-28.32Z M131.52-28.40L131.52-16.92Q133.68-16.92 135.14-17.18Q136.60-17.44 137.46-18Q138.32-18.56 138.70-19.44Q139.08-20.32 139.08-21.52L139.08-21.52L140.48-21.52L140.48-10.60L139.08-10.60Q139.08-11.80 138.74-12.68Q138.40-13.56 137.54-14.14Q136.68-14.72 135.22-15.02Q133.76-15.32 131.52-15.32L131.52-15.32L131.52-6.28Q131.52-4.96 131.84-4.10Q132.16-3.24 132.94-2.70Q133.72-2.16 135-1.94Q136.28-1.72 138.16-1.72L138.16-1.72Q140.28-1.72 141.76-2.02Q143.24-2.32 144.24-3.04Q145.24-3.76 145.84-4.94Q146.44-6.12 146.84-7.88L146.84-7.88L148.36-7.88L147.76 0L122.92 0L122.92-1.52Q124.32-1.56 125.18-1.76Q126.04-1.96 126.52-2.44Q127-2.92 127.16-3.80Q127.32-4.68 127.32-6.08L127.32-6.08L127.32-24.72Q127.32-26.12 127.18-26.98Q127.04-27.84 126.62-28.34Q126.20-28.84 125.40-29.02Q124.60-29.20 123.32-29.28L123.32-29.28L123.32-30.80L146.44-30.80L146.80-23.76L145.40-23.76Q145.16-25.36 144.62-26.38Q144.08-27.40 143.14-28Q142.20-28.60 140.76-28.84Q139.32-29.08 137.28-29.08L137.28-29.08L132.20-29.08Q131.52-29.08 131.52-28.40L131.52-28.40Z M169.32 0L153.68 0L153.68-1.52Q155.20-1.56 156.14-1.74Q157.08-1.92 157.60-2.42Q158.12-2.92 158.30-3.78Q158.48-4.64 158.48-6.08L158.48-6.08L158.48-24.72Q158.48-26.12 158.34-26.98Q158.20-27.84 157.78-28.34Q157.36-28.84 156.56-29.02Q155.76-29.20 154.48-29.28L154.48-29.28L154.48-30.80L168.52-30.80Q172.12-30.80 175.18-29.60Q178.24-28.40 180.46-26.28Q182.68-24.16 183.92-21.24Q185.16-18.32 185.16-14.88L185.16-14.88Q185.16-11.60 184-8.86Q182.84-6.12 180.74-4.16Q178.64-2.20 175.72-1.10Q172.80 0 169.32 0L169.32 0ZM168.44-28.84L163.36-28.84Q162.68-28.84 162.68-28.16L162.68-28.16L162.68-6.52Q162.68-1.96 168.64-1.96L168.64-1.96Q174.12-1.96 177.04-5.22Q179.96-8.48 179.96-14.80L179.96-14.80Q179.96-18.12 179.16-20.72Q178.36-23.32 176.86-25.12Q175.36-26.92 173.24-27.88Q171.12-28.84 168.44-28.84L168.44-28.84Z M208.44-31.20L208.44-31.20Q211.96-31.20 215.00-29.96Q218.04-28.72 220.28-26.56Q222.52-24.40 223.80-21.48Q225.08-18.56 225.08-15.16L225.08-15.16Q225.08-11.92 223.78-9.08Q222.48-6.24 220.24-4.14Q218.00-2.04 214.96-0.82Q211.92 0.40 208.44 0.40L208.44 0.40Q204.96 0.40 201.92-0.82Q198.88-2.04 196.64-4.14Q194.40-6.24 193.10-9.08Q191.80-11.92 191.80-15.16L191.80-15.16Q191.80-18.56 193.08-21.48Q194.36-24.40 196.60-26.56Q198.84-28.72 201.88-29.96Q204.92-31.20 208.44-31.20ZM208.44-1.80L208.44-1.80Q211.08-1.80 213.18-2.72Q215.28-3.64 216.78-5.36Q218.28-7.08 219.08-9.54Q219.88-12 219.88-15.04L219.88-15.04Q219.88-18.24 219.08-20.82Q218.28-23.40 216.80-25.22Q215.32-27.04 213.20-28.02Q211.08-29 208.44-29L208.44-29Q205.80-29 203.68-28.02Q201.56-27.04 200.08-25.22Q198.60-23.40 197.80-20.82Q197.00-18.24 197.00-15.04L197.00-15.04Q197.00-12 197.80-9.54Q198.60-7.08 200.08-5.36Q201.56-3.64 203.68-2.72Q205.80-1.80 208.44-1.80Z M246.48 0.40L246.48 0.40Q243.08 0.40 240.36-0.68Q237.64-1.76 235.72-3.74Q233.80-5.72 232.78-8.56Q231.76-11.40 231.76-14.88L231.76-14.88Q231.76-18.52 232.88-21.52Q234.00-24.52 236.02-26.68Q238.04-28.84 240.86-30.02Q243.68-31.20 247.08-31.20L247.08-31.20Q249.48-31.20 251.60-30.52Q253.72-29.84 256.20-28.32L256.20-28.32L257.04-30.80L258.44-30.80L257.92-21.60L256-21.60Q256-23.56 255.26-24.98Q254.52-26.40 253.32-27.32Q252.12-28.24 250.58-28.68Q249.04-29.12 247.44-29.12L247.44-29.12Q245-29.12 243.08-28.16Q241.16-27.20 239.84-25.40Q238.52-23.60 237.82-21Q237.12-18.40 237.12-15.12L237.12-15.12Q237.12-8.68 239.80-5.22Q242.48-1.76 247.56-1.76L247.56-1.76Q249.48-1.76 251-2.22Q252.52-2.68 253.58-3.46Q254.64-4.24 255.18-5.26Q255.72-6.28 255.72-7.40L255.72-7.40Q255.72-9.72 254.78-10.54Q253.84-11.36 251.72-11.36L251.72-11.36L251.72-12.88L263.08-12.88L263.08-11.36Q262.12-11.36 261.48-11.20Q260.84-11.04 260.46-10.62Q260.08-10.20 259.94-9.52Q259.80-8.84 259.80-7.80L259.80-7.80L259.80-3.32Q259.04-3.32 258.42-3.26Q257.80-3.20 257.12-2.98Q256.44-2.76 255.62-2.38Q254.80-2 253.68-1.36L253.68-1.36Q252.28-0.56 250.46-0.08Q248.64 0.40 246.48 0.40Z M283.28 0.40L283.28 0.40Q279.88 0.40 277.16-0.68Q274.44-1.76 272.52-3.74Q270.60-5.72 269.58-8.56Q268.56-11.40 268.56-14.88L268.56-14.88Q268.56-18.52 269.68-21.52Q270.80-24.52 272.82-26.68Q274.84-28.84 277.66-30.02Q280.48-31.20 283.88-31.20L283.88-31.20Q286.28-31.20 288.40-30.52Q290.52-29.84 293.00-28.32L293.00-28.32L293.84-30.80L295.24-30.80L294.72-21.60L292.80-21.60Q292.80-23.56 292.06-24.98Q291.32-26.40 290.12-27.32Q288.92-28.24 287.38-28.68Q285.84-29.12 284.24-29.12L284.24-29.12Q281.80-29.12 279.88-28.16Q277.96-27.20 276.64-25.40Q275.32-23.60 274.62-21Q273.92-18.40 273.92-15.12L273.92-15.12Q273.92-8.68 276.60-5.22Q279.28-1.76 284.36-1.76L284.36-1.76Q286.28-1.76 287.80-2.22Q289.32-2.68 290.38-3.46Q291.44-4.24 291.98-5.26Q292.52-6.28 292.52-7.40L292.52-7.40Q292.52-9.72 291.58-10.54Q290.64-11.36 288.52-11.36L288.52-11.36L288.52-12.88L299.88-12.88L299.88-11.36Q298.92-11.36 298.28-11.20Q297.64-11.04 297.26-10.62Q296.88-10.20 296.74-9.52Q296.60-8.84 296.60-7.80L296.60-7.80L296.60-3.32Q295.84-3.32 295.22-3.26Q294.60-3.20 293.92-2.98Q293.24-2.76 292.42-2.38Q291.60-2 290.48-1.36L290.48-1.36Q289.08-0.56 287.26-0.08Q285.44 0.40 283.28 0.40Z M321.88-31.20L321.88-31.20Q325.40-31.20 328.44-29.96Q331.48-28.72 333.72-26.56Q335.96-24.40 337.24-21.48Q338.52-18.56 338.52-15.16L338.52-15.16Q338.52-11.92 337.22-9.08Q335.92-6.24 333.68-4.14Q331.44-2.04 328.40-0.82Q325.36 0.40 321.88 0.40L321.88 0.40Q318.40 0.40 315.36-0.82Q312.32-2.04 310.08-4.14Q307.84-6.24 306.54-9.08Q305.24-11.92 305.24-15.16L305.24-15.16Q305.24-18.56 306.52-21.48Q307.80-24.40 310.04-26.56Q312.28-28.72 315.32-29.96Q318.36-31.20 321.88-31.20ZM321.88-1.80L321.88-1.80Q324.52-1.80 326.62-2.72Q328.72-3.64 330.22-5.36Q331.72-7.08 332.52-9.54Q333.32-12 333.32-15.04L333.32-15.04Q333.32-18.24 332.52-20.82Q331.72-23.40 330.24-25.22Q328.76-27.04 326.64-28.02Q324.52-29 321.88-29L321.88-29Q319.24-29 317.12-28.02Q315-27.04 313.52-25.22Q312.04-23.40 311.24-20.82Q310.44-18.24 310.44-15.04L310.44-15.04Q310.44-12 311.24-9.54Q312.04-7.08 313.52-5.36Q315-3.64 317.12-2.72Q319.24-1.80 321.88-1.80Z"/></g>
</svg>
</g><g opacity="1" transform="rotate(0 -11.5047 198.52)">
<svg width="161.5047" height="1.6" x="-11.5047" y="198.52" version="1.1" preserveAspectRatio="none" viewBox="0 0 161.5047 1.6">
  <defs><rect x="0" y="0" width="161.5047" height="1.6" rx="0px" ry="0px" id="id-YLqQhLpe-1704877743922"></rect></defs><use class="icon3 shapeStroke-str" style="stroke-width:0;" xlink:href="#id-YLqQhLpe-1704877743922"></use>
</svg>
</g></svg></svg>