<svg version="1.1" preserveAspectRatio="none" xmlns="http://www.w3.org/2000/svg" width="500" height="500" viewBox="0 0 500 500"><rect width="100%" height="100%" fill="#121212" fill-opacity="1"/><svg viewBox="39.041 214.0217 428.2862 40" width="333" height="31.100698551576027" x="83.5px" y="234.4497px" xmlns="http://www.w3.org/2000/svg" xmlns:xlink="http://www.w3.org/1999/xlink" preserveAspectRatio="none"><defs></defs><style>.companyName {fill:#DFDFDF;fill-opacity:1;}.icon3-str {stroke:#5D5D5D;stroke-opacity:1;}.shapeStroke-str {stroke:#DFDFDF;stroke-opacity:1;}.text {fill:#DFDFDF;fill-opacity:1;}</style><g opacity="1" transform="rotate(0 437.3272 233.0217)">
<svg width="30" height="2" x="437.3272" y="233.0217" version="1.1" preserveAspectRatio="none" viewBox="0 0 30 2">
  <defs><rect x="0" y="0" width="30" height="2" rx="0%" ry="0%" id="id-svOReAC_1704877744222"></rect></defs><use class="text shapeStroke-str" style="stroke-width:0;" xlink:href="#id-svOReAC_1704877744222"></use>
</svg>
</g><g opacity="1" transform="rotate(0 89.041 214.0217)">
<svg width="328.2862" height="40" x="89.041" y="214.0217" version="1.1" preserveAspectRatio="none" viewBox="2.7938 -25.44 212.7262 25.92">
  <g transform="matrix(1 0 0 1 0 0)" class="companyName"><path id="id-D6z1nYkh10" d="M6.16-20.52Q6.16-19 6.92-17.86Q7.68-16.72 8.76-15.90Q9.84-15.08 11.76-13.92L11.76-13.92Q13.76-12.68 14.94-11.78Q16.12-10.88 16.96-9.56Q17.80-8.24 17.80-6.44L17.80-6.44Q17.80-4.48 16.78-2.90Q15.76-1.32 13.86-0.42Q11.96 0.48 9.44 0.48L9.44 0.48Q7.84 0.48 6.28 0.10Q4.72-0.28 3.56-1L3.56-1Q3.36-1.12 3.28-1.28Q3.20-1.44 3.20-1.76L3.20-1.76L2.80-7.48Q2.76-7.64 2.98-7.68Q3.20-7.72 3.24-7.56L3.24-7.56Q4.20-4.52 5.92-2.40Q7.64-0.28 10.40-0.28L10.40-0.28Q12.28-0.28 13.54-1.30Q14.80-2.32 14.80-4.64L14.80-4.64Q14.80-6.40 14-7.72Q13.20-9.04 12.06-9.94Q10.92-10.84 9-12L9-12Q7.12-13.20 6.02-14.06Q4.92-14.92 4.16-16.18Q3.40-17.44 3.40-19.12L3.40-19.12Q3.40-21.16 4.50-22.60Q5.60-24.04 7.38-24.74Q9.16-25.44 11.12-25.44L11.12-25.44Q13.80-25.44 15.96-24.52L15.96-24.52Q16.56-24.28 16.56-23.80L16.56-23.80L16.76-18.80Q16.76-18.64 16.56-18.60Q16.36-18.56 16.32-18.72L16.32-18.72Q15.88-20.88 14.44-22.82Q13-24.76 10.36-24.76L10.36-24.76Q8.36-24.76 7.26-23.56Q6.16-22.36 6.16-20.52L6.16-20.52Z M27.08-3.40Q27.08-2.16 27.36-1.56Q27.64-0.96 28.42-0.72Q29.20-0.48 30.88-0.48L30.88-0.48Q31-0.48 31-0.24Q31 0 30.88 0L30.88 0Q29.44 0 28.60-0.04L28.60-0.04L25.64-0.08L23.16-0.04Q22.48 0 21.28 0L21.28 0Q21.20 0 21.20-0.24Q21.20-0.48 21.28-0.48L21.28-0.48Q22.52-0.48 23.12-0.68Q23.72-0.88 23.94-1.46Q24.16-2.04 24.16-3.24L24.16-3.24L24.16-15.48Q24.16-16.68 23.94-17.24Q23.72-17.80 23.12-18.02Q22.52-18.24 21.28-18.24L21.28-18.24Q21.20-18.24 21.20-18.48Q21.20-18.72 21.28-18.72L21.28-18.72L23.12-18.68Q24.72-18.60 25.60-18.60L25.60-18.60Q26.60-18.60 27.88-18.72L27.88-18.72Q28.32-18.76 28.94-18.80Q29.56-18.84 30.32-18.84L30.32-18.84Q37.04-18.84 37.04-14.08L37.04-14.08Q37.04-12.16 36.06-10.82Q35.08-9.48 33.56-8.82Q32.04-8.16 30.40-8.16L30.40-8.16Q29.44-8.16 28.92-8.28L28.92-8.28Q28.80-8.36 28.80-8.56L28.80-8.56Q28.80-8.80 29-8.80L29-8.80Q29.24-8.80 29.50-8.76Q29.76-8.72 30.08-8.72L30.08-8.72Q31.68-8.72 32.72-9.88Q33.76-11.04 33.76-13.24L33.76-13.24Q33.76-15.76 32.60-17Q31.44-18.24 29.36-18.24L29.36-18.24Q28.48-18.24 28.02-18.06Q27.56-17.88 27.32-17.28Q27.08-16.68 27.08-15.40L27.08-15.40L27.08-3.40Z M59.16-0.48Q59.36-0.48 59.36-0.24Q59.36 0 59.16 0L59.16 0Q58.40 0 56.80-0.08L56.80-0.08Q55.12-0.16 54.40-0.16L54.40-0.16Q53.80-0.16 52.60-0.08L52.60-0.08Q51.48 0 50.88 0L50.88 0Q50.72 0 50.72-0.24Q50.72-0.48 50.88-0.48L50.88-0.48Q51.88-0.48 52.34-0.74Q52.80-1 52.80-1.56L52.80-1.56Q52.80-2.28 52.28-3.36L52.28-3.36L49.68-8.96L44.36-8.96L42.72-4.92Q42.04-3.24 42.04-2.36L42.04-2.36Q42.04-1.36 42.74-0.92Q43.44-0.48 44.92-0.48L44.92-0.48Q45.12-0.48 45.12-0.24Q45.12 0 44.92 0L44.92 0Q44.32 0 43.28-0.08L43.28-0.08Q42.16-0.16 41.20-0.16L41.20-0.16Q40.20-0.16 38.84-0.08L38.84-0.08Q37.64 0 36.92 0L36.92 0Q36.72 0 36.72-0.24Q36.72-0.48 36.92-0.48L36.92-0.48Q38.16-0.48 38.90-0.84Q39.64-1.20 40.26-2.18Q40.88-3.16 41.76-5.28L41.76-5.28L47.60-19.32Q47.68-19.48 47.84-19.48Q48-19.48 48.08-19.32L48.08-19.32L54.48-5.48Q55.52-3.28 56.16-2.26Q56.80-1.24 57.46-0.86Q58.12-0.48 59.16-0.48L59.16-0.48ZM46.84-15.04L44.72-9.80L49.28-9.80L46.84-15.04Z M71.16-19.20Q72.68-19.20 74.42-18.90Q76.16-18.60 77.24-18.04L77.24-18.04Q77.52-17.92 77.60-17.80Q77.68-17.68 77.72-17.36L77.72-17.36L78.04-13.24Q78.04-13.12 77.82-13.08Q77.60-13.04 77.56-13.20L77.56-13.20Q75.64-18.52 70.44-18.52L70.44-18.52Q68.40-18.52 66.86-17.44Q65.32-16.36 64.46-14.42Q63.60-12.48 63.60-10.04L63.60-10.04Q63.60-7.56 64.46-5.30Q65.32-3.04 67.10-1.60Q68.88-0.16 71.44-0.16L71.44-0.16Q73.76-0.16 75.36-1.48Q76.96-2.80 77.92-5.60L77.92-5.60Q77.96-5.76 78.18-5.72Q78.40-5.68 78.40-5.56L78.40-5.56L77.96-1.32Q77.92-1 77.84-0.88Q77.76-0.76 77.40-0.60L77.40-0.60Q74.32 0.48 71 0.48L71 0.48Q67.20 0.48 64.74-1.04Q62.28-2.56 61.20-4.84Q60.12-7.12 60.12-9.44L60.12-9.44Q60.12-12.20 61.56-14.42Q63.00-16.64 65.54-17.92Q68.08-19.20 71.16-19.20L71.16-19.20Z M96.68-5.32Q96.72-5.44 96.94-5.44Q97.16-5.44 97.16-5.32L97.16-5.32Q96.88-2.44 96.88-0.60L96.88-0.60Q96.88-0.28 96.76-0.14Q96.64 0 96.28 0L96.28 0L81.48 0Q81.40 0 81.40-0.24Q81.40-0.48 81.48-0.48L81.48-0.48Q82.76-0.48 83.34-0.68Q83.92-0.88 84.14-1.46Q84.36-2.04 84.36-3.24L84.36-3.24L84.36-15.48Q84.36-16.68 84.14-17.24Q83.92-17.80 83.32-18.02Q82.72-18.24 81.48-18.24L81.48-18.24Q81.40-18.24 81.40-18.48Q81.40-18.72 81.48-18.72L81.48-18.72L95.56-18.72Q95.96-18.72 95.96-18.40L95.96-18.40L96.00-15.92Q96.04-15.16 96.04-14L96.04-14Q96.04-13.88 95.80-13.88Q95.56-13.88 95.56-14L95.56-14Q95.20-15.84 93.90-17.02Q92.60-18.20 90.92-18.20L90.92-18.20L90.04-18.20Q88.84-18.20 88.26-17.98Q87.68-17.76 87.48-17.20Q87.28-16.64 87.28-15.44L87.28-15.44L87.28-10Q90.88-10.04 92.30-10.22Q93.72-10.40 93.92-10.40L93.92-10.40Q94.16-10.40 94.16-9.52L94.16-9.52Q94.16-8.60 93.92-8.60L93.92-8.60Q93.76-8.60 92.32-8.80Q90.88-9 87.28-9.08L87.28-9.08L87.28-3.40Q87.28-2.24 87.48-1.66Q87.68-1.08 88.26-0.86Q88.84-0.64 90.04-0.64L90.04-0.64L91.52-0.64Q93.24-0.64 94.68-1.96Q96.12-3.28 96.68-5.32L96.68-5.32Z M111.12 0.16Q109.92 0.16 108.36 0.04L108.36 0.04Q107.76 0 106.88-0.04Q106.00-0.08 104.92-0.08L104.92-0.08L102.12-0.04Q101.36 0 100.04 0L100.04 0Q99.96 0 99.96-0.24Q99.96-0.48 100.04-0.48L100.04-0.48Q101.48-0.48 102.16-0.68Q102.84-0.88 103.08-1.46Q103.32-2.04 103.32-3.24L103.32-3.24L103.32-21.76Q103.32-22.96 103.08-23.52Q102.84-24.08 102.18-24.30Q101.52-24.52 100.12-24.52L100.12-24.52Q100.00-24.52 100.00-24.76Q100.00-25 100.12-25L100.12-25L102.12-24.96Q103.88-24.88 104.92-24.88L104.92-24.88Q106.44-24.88 108.00-25L108.00-25Q109.92-25.08 110.56-25.08L110.56-25.08Q114.68-25.08 117.88-23.48Q121.08-21.88 122.84-19.12Q124.60-16.36 124.60-12.92L124.60-12.92Q124.60-9.04 122.78-6.06Q120.96-3.08 117.88-1.46Q114.80 0.16 111.12 0.16L111.12 0.16ZM110.72-0.56Q113.72-0.56 116.02-1.90Q118.32-3.24 119.62-5.82Q120.92-8.40 120.92-12.04L120.92-12.04Q120.92-15.52 119.70-18.34Q118.48-21.16 116.22-22.78Q113.96-24.40 110.96-24.40L110.96-24.40Q109.24-24.40 108.32-24.20Q107.40-24 106.96-23.42Q106.52-22.84 106.52-21.68L106.52-21.68L106.52-3.68Q106.52-1.96 107.38-1.26Q108.24-0.56 110.72-0.56L110.72-0.56Z M137.56 0.48Q134.76 0.48 132.56-0.84Q130.36-2.16 129.14-4.40Q127.92-6.64 127.92-9.28L127.92-9.28Q127.92-12.36 129.52-14.62Q131.12-16.88 133.62-18.04Q136.12-19.20 138.72-19.20L138.72-19.20Q141.52-19.20 143.68-17.82Q145.84-16.44 147.00-14.24Q148.16-12.04 148.16-9.64L148.16-9.64Q148.16-6.96 146.72-4.62Q145.28-2.28 142.86-0.90Q140.44 0.48 137.56 0.48L137.56 0.48ZM138.56-0.36Q141.40-0.36 143.10-2.56Q144.80-4.76 144.80-8.68L144.80-8.68Q144.80-11.32 143.92-13.52Q143.04-15.72 141.36-17.02Q139.68-18.32 137.36-18.32L137.36-18.32Q134.44-18.32 132.84-16.24Q131.24-14.16 131.24-10.36L131.24-10.36Q131.24-7.56 132.16-5.28Q133.08-3 134.74-1.68Q136.40-0.36 138.56-0.36L138.56-0.36Z M161.32 0.48Q158.12 0.48 155.74-0.86Q153.36-2.20 152.12-4.40Q150.88-6.60 150.88-9.04L150.88-9.04Q150.88-12.16 152.28-14.46Q153.68-16.76 156.28-17.98Q158.88-19.20 162.40-19.20L162.40-19.20Q164.12-19.20 165.68-18.88Q167.24-18.56 168.28-17.96L168.28-17.96Q168.52-17.84 168.58-17.66Q168.64-17.48 168.68-17.08L168.68-17.08L169.04-13.32Q169.04-13.20 168.82-13.18Q168.60-13.16 168.56-13.28L168.56-13.28Q166.44-18.52 161.48-18.52L161.48-18.52Q158.16-18.52 156.20-16.14Q154.24-13.76 154.24-9.56L154.24-9.56Q154.24-6.84 155.22-4.72Q156.20-2.60 158.02-1.42Q159.84-0.24 162.28-0.24L162.28-0.24Q164.16-0.24 165.04-0.60Q165.92-0.96 166.22-1.94Q166.52-2.92 166.52-5.04L166.52-5.04Q166.52-6.08 166.32-6.50Q166.12-6.92 165.48-7.06Q164.84-7.20 163.24-7.20L163.24-7.20Q163-7.20 163-7.52L163-7.52Q163-7.64 163.06-7.74Q163.12-7.84 163.20-7.84L163.20-7.84Q165.28-7.68 167.40-7.68L167.40-7.68Q168.36-7.68 170.60-7.76L170.60-7.76Q170.68-7.76 170.74-7.66Q170.80-7.56 170.80-7.48L170.80-7.48Q170.80-7.20 170.60-7.20L170.60-7.20Q169.88-7.24 169.58-7.08Q169.28-6.92 169.20-6.42Q169.12-5.92 169.12-4.64L169.12-4.64Q169.12-2.84 169.20-2.12Q169.28-1.40 169.28-1.12L169.28-1.12Q169.28-0.88 169.22-0.82Q169.16-0.76 168.84-0.64L168.84-0.64Q166.20 0.48 161.32 0.48L161.32 0.48Z M183.52 0.48Q180.32 0.48 177.94-0.86Q175.56-2.20 174.32-4.40Q173.08-6.60 173.08-9.04L173.08-9.04Q173.08-12.16 174.48-14.46Q175.88-16.76 178.48-17.98Q181.08-19.20 184.60-19.20L184.60-19.20Q186.32-19.20 187.88-18.88Q189.44-18.56 190.48-17.96L190.48-17.96Q190.72-17.84 190.78-17.66Q190.84-17.48 190.88-17.08L190.88-17.08L191.24-13.32Q191.24-13.20 191.02-13.18Q190.80-13.16 190.76-13.28L190.76-13.28Q188.64-18.52 183.68-18.52L183.68-18.52Q180.36-18.52 178.40-16.14Q176.44-13.76 176.44-9.56L176.44-9.56Q176.44-6.84 177.42-4.72Q178.40-2.60 180.22-1.42Q182.04-0.24 184.48-0.24L184.48-0.24Q186.36-0.24 187.24-0.60Q188.12-0.96 188.42-1.94Q188.72-2.92 188.72-5.04L188.72-5.04Q188.72-6.08 188.52-6.50Q188.32-6.92 187.68-7.06Q187.04-7.20 185.44-7.20L185.44-7.20Q185.20-7.20 185.20-7.52L185.20-7.52Q185.20-7.64 185.26-7.74Q185.32-7.84 185.40-7.84L185.40-7.84Q187.48-7.68 189.60-7.68L189.60-7.68Q190.56-7.68 192.80-7.76L192.80-7.76Q192.88-7.76 192.94-7.66Q193-7.56 193-7.48L193-7.48Q193-7.20 192.80-7.20L192.80-7.20Q192.08-7.24 191.78-7.08Q191.48-6.92 191.40-6.42Q191.32-5.92 191.32-4.64L191.32-4.64Q191.32-2.84 191.40-2.12Q191.48-1.40 191.48-1.12L191.48-1.12Q191.48-0.88 191.42-0.82Q191.36-0.76 191.04-0.64L191.04-0.64Q188.40 0.48 183.52 0.48L183.52 0.48Z M204.92 0.48Q202.12 0.48 199.92-0.84Q197.72-2.16 196.50-4.40Q195.28-6.64 195.28-9.28L195.28-9.28Q195.28-12.36 196.88-14.62Q198.48-16.88 200.98-18.04Q203.48-19.20 206.08-19.20L206.08-19.20Q208.88-19.20 211.04-17.82Q213.20-16.44 214.36-14.24Q215.52-12.04 215.52-9.64L215.52-9.64Q215.52-6.96 214.08-4.62Q212.64-2.28 210.22-0.90Q207.80 0.48 204.92 0.48L204.92 0.48ZM205.92-0.36Q208.76-0.36 210.46-2.56Q212.16-4.76 212.16-8.68L212.16-8.68Q212.16-11.32 211.28-13.52Q210.40-15.72 208.72-17.02Q207.04-18.32 204.72-18.32L204.72-18.32Q201.80-18.32 200.20-16.24Q198.60-14.16 198.60-10.36L198.60-10.36Q198.60-7.56 199.52-5.28Q200.44-3 202.10-1.68Q203.76-0.36 205.92-0.36L205.92-0.36Z"/></g>
</svg>
</g><g opacity="1" transform="rotate(0 39.041 233.0217)">
<svg width="30" height="2" x="39.041" y="233.0217" version="1.1" preserveAspectRatio="none" viewBox="0 0 30 2">
  <defs><rect x="0" y="0" width="30" height="2" rx="0%" ry="0%" id="id-fxEKKCpm1704877744222"></rect></defs><use class="text shapeStroke-str" style="stroke-width:0;" xlink:href="#id-fxEKKCpm1704877744222"></use>
</svg>
</g></svg></svg>